<?xml version="1.0" standalone="no"?>
<!DOCTYPE svg PUBLIC "-//W3C//DTD SVG 20010904//EN"
 "http://www.w3.org/TR/2001/REC-SVG-20010904/DTD/svg10.dtd">
<svg version="1.0" xmlns="http://www.w3.org/2000/svg"
 width="700.000000pt" height="700.000000pt" viewBox="0 0 700.000000 700.000000"
 preserveAspectRatio="xMidYMid meet">
<metadata>
Created by potrace 1.11, written by Peter Selinger 2001-2013
</metadata>
<g transform="translate(0.000000,700.000000) scale(0.100000,-0.100000)"
fill="#000000" stroke="none">
<path d="M3417 6975 c-1 -2 -51 -5 -112 -8 -117 -6 -224 -18 -382 -43 -57 -8
-274 -54 -308 -64 -106 -32 -355 -114 -380 -125 -16 -8 -59 -26 -95 -40 -364
-150 -773 -423 -1069 -716 -355 -351 -622 -754 -804 -1214 -80 -201 -172 -533
-192 -690 -2 -16 -7 -48 -11 -70 -4 -22 -8 -53 -10 -70 -2 -16 -7 -59 -11 -95
-10 -84 -10 -591 0 -695 7 -72 29 -221 42 -285 2 -14 10 -50 16 -80 65 -326
206 -700 378 -1000 201 -352 514 -729 791 -950 24 -19 48 -40 54 -45 32 -31
275 -202 366 -257 322 -198 727 -363 1050 -427 30 -6 66 -14 80 -17 23 -4 151
-26 230 -38 164 -25 856 -27 898 -2 4 2 38 7 77 11 38 4 72 8 75 10 3 2 22 6
43 9 127 20 372 87 532 144 626 226 1167 619 1574 1142 28 36 54 70 59 75 214
270 449 754 552 1140 93 348 110 495 106 965 -2 206 -6 391 -10 410 -3 19 -15
87 -26 150 -102 574 -341 1105 -699 1555 -191 239 -483 518 -696 665 -27 19
-52 37 -55 41 -3 3 -23 16 -45 29 -22 13 -42 26 -45 29 -3 4 -16 12 -30 20
-14 8 -54 33 -90 55 -98 60 -340 178 -475 231 -66 26 -129 51 -140 56 -43 18
-258 79 -366 103 -218 48 -315 63 -559 81 -75 6 -308 13 -313 10z m403 -890
c19 -3 80 -13 135 -21 83 -13 151 -29 330 -77 175 -47 437 -173 638 -307 445
-296 803 -724 990 -1185 42 -102 74 -189 83 -225 2 -8 15 -58 29 -110 33 -125
56 -255 72 -410 15 -145 7 -512 -13 -614 -2 -12 -6 -37 -9 -56 -18 -142 -77
-362 -141 -527 -259 -673 -836 -1246 -1508 -1497 -178 -67 -415 -126 -568
-142 -35 -3 -83 -10 -108 -14 -48 -9 -481 -6 -540 4 -19 3 -64 10 -100 16
-443 69 -849 241 -1180 499 -451 353 -776 820 -926 1331 -29 98 -26 86 -52
215 -11 55 -23 123 -26 150 -3 28 -8 61 -12 75 -3 14 -7 131 -9 260 -5 321 12
463 89 765 37 144 150 413 237 565 41 72 171 257 237 338 88 110 271 297 359
370 34 28 69 56 78 64 32 27 41 34 95 74 289 213 720 390 1070 440 19 2 44 6
55 9 11 2 58 7 105 11 47 3 87 8 89 10 6 6 460 -4 501 -11z"/>
<path d="M3349 5426 c-2 -2 -35 -7 -74 -10 -188 -17 -435 -87 -611 -174 -218
-107 -366 -213 -534 -382 -164 -164 -270 -311 -370 -515 -140 -288 -202 -572
-195 -900 2 -88 6 -171 10 -185 3 -14 7 -43 10 -65 11 -86 69 -296 111 -405
97 -249 230 -452 421 -645 120 -122 143 -141 252 -220 304 -218 651 -342 1015
-361 61 -3 116 -5 121 -5 6 0 58 2 117 5 59 2 115 7 125 10 10 3 36 8 58 11
79 11 252 55 330 84 28 10 66 24 85 31 74 28 269 131 349 185 236 158 465 400
599 633 39 67 75 143 70 146 -1 1 -32 16 -68 33 -36 17 -168 82 -295 143 -345
168 -389 189 -404 192 -11 3 -48 -47 -68 -92 -4 -8 -27 -42 -52 -75 -170 -225
-407 -372 -676 -419 -455 -79 -919 159 -1129 580 -230 459 -95 1011 324 1325
126 94 341 182 480 195 30 3 69 8 85 10 45 7 44 7 135 -1 189 -15 356 -72 515
-174 102 -66 249 -219 315 -329 30 -50 60 -91 67 -92 6 0 49 17 95 39 137 64
668 321 677 328 7 5 -35 89 -87 173 -304 496 -802 822 -1397 915 -44 7 -400
16 -406 11z"/>
</g>
</svg>
