<svg xmlns="http://www.w3.org/2000/svg" width="86.7908" height="86.8933" viewBox="0 0 86.7908 86.8933"><path d="M86.7863,43.4987c0,.6466-.008,1.2933.0017,1.94a26.1262,26.1262,0,0,1-.2436,3.9366,44.1027,44.1027,0,0,1-.9134,4.81,39.4871,39.4871,0,0,1-2.0147,6.0286c-.4066.9415-.805,1.89-1.273,2.8008a42.4128,42.4128,0,0,1-3.0718,5.174c-.7944,1.1212-1.6278,2.2138-2.5112,3.27a40.8745,40.8745,0,0,1-3.3921,3.6267c-.9384.879-1.9068,1.7275-2.9248,2.52-.971.7558-1.9563,1.4892-2.9772,2.1744a43.4475,43.4475,0,0,1-11.0809,5.279,43.0823,43.0823,0,0,1-4.724,1.1822c-1.1032.2113-2.2179.3649-3.3373.493a28.049,28.049,0,0,1-3.2454.1534c-1.1756-.0019-2.3515-.0169-3.5268.0036a27.3715,27.3715,0,0,1-4.3279-.3362A44.98,44.98,0,0,1,32.111,85.507a41.2248,41.2248,0,0,1-5.0413-1.69A40.5379,40.5379,0,0,1,23.0061,81.91a43.5413,43.5413,0,0,1-4.5581-2.8259q-1.3961-.9963-2.7252-2.0748a18.7788,18.7788,0,0,1-1.8341-1.6395c-.3325-.3532-.7386-.6228-1.0715-.9781-1.1517-1.229-2.2928-2.4642-3.35-3.78a44.0418,44.0418,0,0,1-3.4983-5.0562,40.3894,40.3894,0,0,1-2.1413-4.1433,42.842,42.842,0,0,1-1.74-4.4658A41.308,41.308,0,0,1,.6935,51.4132C.551,50.5924.3957,49.7711.3,48.9463.2059,48.135.1437,47.3161.0773,46.5c-.134-1.6441-.0434-3.2868-.0761-4.93a18.7337,18.7337,0,0,1,.1543-2.0534c.0526-.5825.1181-1.1624.19-1.7427.1442-1.1619.3614-2.31.5993-3.455a42.7784,42.7784,0,0,1,1.629-5.6559c.4626-1.2982,1.0142-2.5609,1.6017-3.81A42.8273,42.8273,0,0,1,7.7448,18.701c.7163-1.0343,1.4943-2.021,2.2926-2.9946a45.6281,45.6281,0,0,1,3.7318-3.9726c.5676-.5445,1.1813-1.0455,1.7818-1.5577A42.03,42.03,0,0,1,20.22,6.7614c.8141-.52,1.6477-1.0066,2.4958-1.4709.6309-.3454,1.2662-.6809,1.9148-.9894q1.8031-.8577,3.6742-1.5586a43.5076,43.5076,0,0,1,5.4073-1.62c1.05-.2433,2.1092-.4333,3.1757-.5961.85-.13,1.7035-.2366,2.5566-.3143C39.98.1632,40.52.1074,41.0618.092A31.961,31.961,0,0,1,44.2682.0265c.8446.0608,1.6918.0416,2.5365.14.4454.0516.901.0794,1.352.1148.5222.0409,1.0439.1057,1.5614.1875.8188.1294,1.6387.2592,2.45.43,1.1545.2427,2.3025.5148,3.4366.8461.8558.25,1.7019.5278,2.5425.8212,1.0621.3707,2.0962.8137,3.1278,1.2631.8068.3514,1.5874.7544,2.3717,1.15,1.006.5071,1.9674,1.0942,2.925,1.6866A38.461,38.461,0,0,1,69.95,9.018c.5873.4568,1.1623.9317,1.7339,1.41,1.0034.8393,1.918,1.7675,2.8461,2.6841.8447.8342,1.62,1.7284,2.3861,2.6352a42.2691,42.2691,0,0,1,3.047,4.119c.5931.9045,1.1347,1.84,1.66,2.787.3985.7183.7666,1.4507,1.1238,2.1886.5542,1.1447,1.037,2.32,1.4835,3.5116a41.4516,41.4516,0,0,1,1.6158,5.4047c.1993.88.3588,1.7681.5144,2.6574.1306.7462.2145,1.4978.3252,2.246a8.9921,8.9921,0,0,1,.0964,1.2221C86.7942,41.0885,86.7863,42.2936,86.7863,43.4987Zm-10.7477-.1049A31.8924,31.8924,0,0,0,65.9152,19.9705a31.5578,31.5578,0,0,0-24.0174-8.9927,31.42,31.42,0,0,0-21.3985,9.45,31.5813,31.5813,0,0,0-9.61,23.8431,31.5105,31.5105,0,0,0,8.8233,21.5021,32.3824,32.3824,0,0,0,47.666-.2263A32.0029,32.0029,0,0,0,76.0386,43.3938Z"/><path d="M43.5828,19.3068a11.0594,11.0594,0,0,1,2.0686.1123,24.7719,24.7719,0,0,1,4.58.8976,23.7863,23.7863,0,0,1,4.92,2.078,25.3776,25.3776,0,0,1,5.932,4.618,24.66,24.66,0,0,1,3.032,4.0168c.3463.5775.6811,1.1613.97,1.77.1329.2808.1274.2815-.157.415-.1861.0873-.37.18-.5545.27-1.463.7173-2.9156,1.4568-4.3927,2.1436-.879.4087-1.7349.8628-2.6154,1.266-.5471.2506-1.0913.506-1.6309.7723-.3025.1493-.3346.1379-.5143-.1747a16.65,16.65,0,0,0-1.4338-2.2109,14.0808,14.0808,0,0,0-1.6834-1.7855,13.0936,13.0936,0,0,0-3.0759-2.0217,13.4816,13.4816,0,0,0-3.8636-1.1355,14.4128,14.4128,0,0,1-1.5725-.146,1.2,1.2,0,0,0-.6543.0271,1.408,1.408,0,0,1-.4358.0476,9.8293,9.8293,0,0,0-2.6763.44,13.345,13.345,0,0,0-9.0162,8.4433,14.0176,14.0176,0,0,0-.6471,2.8076,13.2645,13.2645,0,0,0-.0545,2.634,12.9567,12.9567,0,0,0,1.0383,4.14,12.6529,12.6529,0,0,0,1.5084,2.614,12.8412,12.8412,0,0,0,2.4937,2.5759,14.2787,14.2787,0,0,0,2.0449,1.3523,13.2165,13.2165,0,0,0,7.025,1.5151,12.5662,12.5662,0,0,0,2.6237-.4414,12.95,12.95,0,0,0,4.879-2.5109,13.7592,13.7592,0,0,0,3.1952-3.7659c.1028-.1778.1858-.3669.2809-.5492.1816-.3481.1838-.35.5257-.1844,1.1993.582,2.3923,1.1775,3.5979,1.7461,1.0734.5063,2.1272,1.0533,3.203,1.5525.7845.3639,1.5544.7553,2.33,1.1362.3367.1653.3344.1739.1666.5226a22.4657,22.4657,0,0,1-2.7279,4.2933c-.44.55-.9226,1.0587-1.4,1.5755a22.6481,22.6481,0,0,1-4.629,3.8073,24.4693,24.4693,0,0,1-6.3679,2.8273,23.2813,23.2813,0,0,1-3.0424.6592,12.72,12.72,0,0,1-2.4468.2052,2.4721,2.4721,0,0,0-.9174.07.3982.3982,0,0,1-.2184.0035,7.4149,7.4149,0,0,0-1.5341-.0841A24.0837,24.0837,0,0,1,35.5127,66.4a23.886,23.886,0,0,1-5.1-2.46,27.9015,27.9015,0,0,1-2.5215-1.8309c-.7766-.6294-1.4526-1.3671-2.164-2.0666a20.2155,20.2155,0,0,1-2.0688-2.503,23.8148,23.8148,0,0,1-3.9842-9.1212c-.12-.6318-.2378-1.2643-.3335-1.9a6.9989,6.9989,0,0,1-.092-1.0028c-.0027-.7933-.1695-1.5781-.1084-2.371a35.5932,35.5932,0,0,1,.3971-3.8791,25.7884,25.7884,0,0,1,.79-3.1942,20.78,20.78,0,0,1,1.0114-2.5773,23.2169,23.2169,0,0,1,3.4007-5.4193,22.7556,22.7556,0,0,1,1.7179-1.881,28.4039,28.4039,0,0,1,2.8625-2.383,24.094,24.094,0,0,1,3.54-2.1128,22.7237,22.7237,0,0,1,5.8981-1.9415,26.2384,26.2384,0,0,1,2.905-.3685C42.2332,19.3486,42.802,19.3341,43.5828,19.3068Z"/></svg>