<svg xmlns="http://www.w3.org/2000/svg" width="599.9723" height="86.8933" viewBox="0 0 599.9723 86.8933"><defs><style>.a{fill:#fff;}</style></defs><path class="a" d="M105.9416,23.9548h9.0424V59.4493h21.608v7.78h-30.65Z"/><path class="a" d="M146.4474,31.412h-8.4847V23.6905h8.4847Zm-8.4847,3.8165h8.4847V67.2291h-8.4847Z"/><path class="a" d="M170.1157,35.2285h8.9836L167.5437,67.2291h-8.8223L147.2455,35.2285H156.64l6.6643,23.6043Z"/><path class="a" d="M188.2941,31.412h-8.4847V23.6905h8.4847Zm-8.4847,3.8165h8.4847V67.2291h-8.4847Z"/><path class="a" d="M218.0529,37.0635q3.1425,2.5979,3.1428,8.6164V67.2291H212.623V47.7645a8.94,8.94,0,0,0-.67-3.8753q-1.2246-2.466-4.6629-2.466a5.78,5.78,0,0,0-5.8,3.611,12.4879,12.4879,0,0,0-.816,4.8733V67.2291h-8.3672V35.2869H200.41v4.6682a14.1787,14.1787,0,0,1,3.0406-3.5523,10.5341,10.5341,0,0,1,6.5195-1.9379A12.2651,12.2651,0,0,1,218.0529,37.0635Z"/><path class="a" d="M240.658,35.199a10.0476,10.0476,0,0,1,4.9253,4.6385v-4.609h8.1617V65.5851q0,6.1943-2.0842,9.3359-3.5823,5.4015-13.74,5.4018A18.7236,18.7236,0,0,1,227.91,77.9156a8.882,8.882,0,0,1-4.2863-7.193h9.1008a3.7709,3.7709,0,0,0,1.1451,2.1138q1.35,1.1454,4.5506,1.1451,4.52,0,6.0478-3.0238.9984-1.9377.998-6.5176V62.385a10.2013,10.2013,0,0,1-2.5836,3.0826,10.3855,10.3855,0,0,1-6.488,1.9082,12.2765,12.2765,0,0,1-9.85-4.33Q222.86,58.7151,222.86,51.3168a19.7892,19.7892,0,0,1,3.5478-11.9928,11.7173,11.7173,0,0,1,10.0572-4.8591A11.0084,11.0084,0,0,1,240.658,35.199Zm2.8493,22.9435q2.018-2.2161,2.0176-7.06,0-4.5508-1.915-6.9287a6.2494,6.2494,0,0,0-5.1312-2.378,6.0473,6.0473,0,0,0-6.0516,4.14,14.7352,14.7352,0,0,0-.877,5.4314,12.43,12.43,0,0,0,.9354,4.9612,6.0978,6.0978,0,0,0,6.0816,4.0516A6.4236,6.4236,0,0,0,243.5073,58.1425Z"/><path class="a" d="M285.8129,25.07a10.6958,10.6958,0,0,1,4.0509,3.0241,13.4877,13.4877,0,0,1,2.1756,3.64,12.1338,12.1338,0,0,1,.8017,4.5506,12.9692,12.9692,0,0,1-1.5556,6.0625,8.6973,8.6973,0,0,1-5.1379,4.213,8.0855,8.0855,0,0,1,4.2425,3.42q1.2475,2.2173,1.2472,6.7674v2.9066a21.8392,21.8392,0,0,0,.2389,4.022,3.6127,3.6127,0,0,0,1.6694,2.466v1.0863H283.564q-.411-1.4379-.5869-2.3193a21.2667,21.2667,0,0,1-.3818-3.7286l-.0592-4.022q-.055-4.14-1.43-5.5194t-5.1514-1.38h-8.8316v16.969h-8.837V23.9548h20.6991A18.861,18.861,0,0,1,285.8129,25.07Zm-18.69,6.4v11.626h9.7315a10.3564,10.3564,0,0,0,4.35-.7045q2.5648-1.233,2.5648-4.8736,0-3.9338-2.4809-5.2843a8.9711,8.9711,0,0,0-4.1827-.7636Z"/><path class="a" d="M323.3654,63.3145q-4.0516,5.001-12.3016,5.0009t-12.3009-5.0009a18.524,18.524,0,0,1-4.0517-12.0419,18.6467,18.6467,0,0,1,4.0517-11.9969q4.0516-5.0746,12.3009-5.075t12.3016,5.075a18.6466,18.6466,0,0,1,4.0516,11.9969A18.5239,18.5239,0,0,1,323.3654,63.3145ZM316.6718,58.69q1.9663-2.6092,1.9667-7.4172t-1.9667-7.4018a7.4363,7.4363,0,0,0-11.2887,0q-1.9821,2.5941-1.9817,7.4018t1.9817,7.4172a7.41,7.41,0,0,0,11.2887,0Z"/><path class="a" d="M355.9439,63.3145q-4.0516,5.001-12.3016,5.0009t-12.3009-5.0009A18.5239,18.5239,0,0,1,327.29,51.2726a18.6466,18.6466,0,0,1,4.0516-11.9969q4.0516-5.0746,12.3009-5.075t12.3016,5.075a18.6466,18.6466,0,0,1,4.0516,11.9969A18.5239,18.5239,0,0,1,355.9439,63.3145ZM349.25,58.69q1.9663-2.6092,1.9667-7.4172T349.25,43.8708a7.4363,7.4363,0,0,0-11.2887,0q-1.9819,2.5941-1.9816,7.4018t1.9816,7.4172a7.41,7.41,0,0,0,11.2887,0Z"/><path class="a" d="M401.7629,35.3457a9.3108,9.3108,0,0,1,3.7289,2.8774,9.2039,9.2039,0,0,1,1.82,4.11,28.4539,28.4539,0,0,1,.2934,4.7269l-.0584,20.1691h-8.5726V46.8542a6.688,6.688,0,0,0-.5877-2.9946,4.1722,4.1722,0,0,0-4.11-2.2309,4.8087,4.8087,0,0,0-4.7853,2.877,9.0275,9.0275,0,0,0-.6753,3.67V67.2291H380.39V48.1755a10.7174,10.7174,0,0,0-.587-4.14q-1.0566-2.3188-4.14-2.3193-3.5823,0-4.8145,2.3193a8.93,8.93,0,0,0-.6753,3.9341V67.2291H361.689V35.2869h8.1317v4.6682a13.4689,13.4689,0,0,1,2.9361-3.5523,11.6157,11.6157,0,0,1,12.2425-.2643,9.3956,9.3956,0,0,1,2.76,3.8461,10.6391,10.6391,0,0,1,4.0808-4.14,12.4536,12.4536,0,0,1,5.7548-1.3213A11.1461,11.1461,0,0,1,401.7629,35.3457Z"/><path class="a" d="M416.7308,29.168a17.8165,17.8165,0,0,1,13.3026-5.3431q10.8045,0,15.8,7.1634a15.6125,15.6125,0,0,1,2.9624,8.0737h-9.0421a12.322,12.322,0,0,0-2.2148-4.6973q-2.4161-2.8187-7.1611-2.8187a8.8242,8.8242,0,0,0-7.6223,3.9783q-2.7894,3.9786-2.7894,11.2588T422.91,57.69a9.2237,9.2237,0,0,0,7.4808,3.6257,8.4752,8.4752,0,0,0,7.0937-3.1121,13.6623,13.6623,0,0,0,2.24-5.02h8.9837a19.4912,19.4912,0,0,1-5.94,11.5084,17.2851,17.2851,0,0,1-12.2417,4.4335q-9.2364,0-14.5225-5.9891-5.2859-6.0186-5.2858-16.5Q410.7185,35.3041,416.7308,29.168Z"/><path class="a" d="M477.8815,64.0066Q473.83,69.0072,465.58,69.0075T453.279,64.0066a18.5235,18.5235,0,0,1-4.0516-12.0418,18.6469,18.6469,0,0,1,4.0516-11.997q4.0516-5.0746,12.3013-5.075t12.3012,5.075a18.6489,18.6489,0,0,1,4.0513,11.997A18.5255,18.5255,0,0,1,477.8815,64.0066Zm-6.6939-4.6247q1.9668-2.6091,1.967-7.4171t-1.967-7.4018a7.436,7.436,0,0,0-11.2884,0q-1.9813,2.5939-1.9816,7.4018t1.9816,7.4171a7.41,7.41,0,0,0,11.2884,0Z"/><path class="a" d="M492.3168,67.9213H483.95V24.647h8.3672Z"/><path class="a" d="M504.873,67.9213h-8.3672V24.647h8.3672Z"/><path class="a" d="M529.7386,36.5687a13.0181,13.0181,0,0,1,5.53,4.734,15.73,15.73,0,0,1,2.5495,6.6157,40.8828,40.8828,0,0,1,.2759,6.3511h-23.307q.1948,4.8151,3.3464,6.7527a8.4965,8.4965,0,0,0,4.6135,1.2034,6.4967,6.4967,0,0,0,6.3679-3.67h8.5424a10.4484,10.4484,0,0,1-3.1016,5.784q-4.3,4.6681-12.04,4.6677a17.4438,17.4438,0,0,1-11.2716-3.937q-4.8837-3.9372-4.8833-12.8119,0-8.315,4.4083-12.7523a15.428,15.428,0,0,1,11.4434-4.4372A18.2213,18.2213,0,0,1,529.7386,36.5687Zm-12.5172,7.2281a8.6936,8.6936,0,0,0-2.2291,4.9533h14.415a6.98,6.98,0,0,0-2.229-5.0563,7.33,7.33,0,0,0-4.9624-1.7256A6.6355,6.6355,0,0,0,517.2214,43.7968Z"/><path class="a" d="M554.0072,35.8911a10.0479,10.0479,0,0,1,4.9253,4.6386v-4.609h8.1617V66.2773q0,6.1943-2.0842,9.3362-3.5823,5.4015-13.74,5.4015a18.7263,18.7263,0,0,1-10.0112-2.4069,8.882,8.882,0,0,1-4.2863-7.1929h9.1012a3.7632,3.7632,0,0,0,1.1447,2.1134q1.35,1.1454,4.551,1.1454,4.52,0,6.0475-3.0245.9983-1.9371.9979-6.5169V63.0768a10.1941,10.1941,0,0,1-2.5835,3.0829,10.3849,10.3849,0,0,1-6.4878,1.9083,12.2775,12.2775,0,0,1-9.85-4.33q-3.6851-4.3307-3.6848-11.7289a19.79,19.79,0,0,1,3.5478-11.9929,11.7168,11.7168,0,0,1,10.0572-4.859A11.01,11.01,0,0,1,554.0072,35.8911Zm2.8494,22.9436q2.018-2.2163,2.0175-7.06,0-4.5508-1.915-6.9287a6.2487,6.2487,0,0,0-5.13-2.378,6.0468,6.0468,0,0,0-6.052,4.14,14.72,14.72,0,0,0-.8774,5.4313A12.4232,12.4232,0,0,0,545.8351,57a6.0968,6.0968,0,0,0,6.0812,4.0516A6.4238,6.4238,0,0,0,556.8566,58.8347Z"/><path class="a" d="M591.6076,36.5687a13.0191,13.0191,0,0,1,5.53,4.734,15.7294,15.7294,0,0,1,2.5491,6.6157,40.792,40.792,0,0,1,.2755,6.3511H576.6558q.1943,4.8151,3.3464,6.7527a8.4963,8.4963,0,0,0,4.6131,1.2034,6.4994,6.4994,0,0,0,6.3687-3.67h8.542a10.4509,10.4509,0,0,1-3.1016,5.784q-4.3,4.6681-12.04,4.6677a17.4419,17.4419,0,0,1-11.2715-3.937q-4.8838-3.9372-4.8834-12.8119,0-8.315,4.4087-12.7523a15.4258,15.4258,0,0,1,11.443-4.4372A18.2227,18.2227,0,0,1,591.6076,36.5687ZM579.09,43.7968a8.6882,8.6882,0,0,0-2.2287,4.9533h14.415a6.9815,6.9815,0,0,0-2.2294-5.0563,7.3308,7.3308,0,0,0-4.962-1.7256A6.6365,6.6365,0,0,0,579.09,43.7968Z"/><path class="a" d="M86.7863,43.4987c0,.6466-.008,1.2933.0017,1.94a26.1262,26.1262,0,0,1-.2436,3.9366,44.1027,44.1027,0,0,1-.9134,4.81,39.4871,39.4871,0,0,1-2.0147,6.0286c-.4066.9415-.805,1.89-1.273,2.8008a42.4128,42.4128,0,0,1-3.0718,5.174c-.7944,1.1212-1.6278,2.2138-2.5112,3.27a40.8745,40.8745,0,0,1-3.3921,3.6267c-.9384.879-1.9068,1.7275-2.9248,2.52-.971.7558-1.9563,1.4892-2.9772,2.1744a43.4475,43.4475,0,0,1-11.0809,5.279,43.0823,43.0823,0,0,1-4.724,1.1822c-1.1032.2113-2.2179.3649-3.3373.493a28.049,28.049,0,0,1-3.2454.1534c-1.1756-.0019-2.3515-.0169-3.5268.0036a27.3715,27.3715,0,0,1-4.3279-.3362A44.98,44.98,0,0,1,32.111,85.507a41.2248,41.2248,0,0,1-5.0413-1.69A40.5379,40.5379,0,0,1,23.0061,81.91a43.5413,43.5413,0,0,1-4.5581-2.8259q-1.3961-.9963-2.7252-2.0748a18.7788,18.7788,0,0,1-1.8341-1.6395c-.3325-.3532-.7386-.6228-1.0715-.9781-1.1517-1.229-2.2928-2.4642-3.35-3.78a44.0418,44.0418,0,0,1-3.4983-5.0562,40.3894,40.3894,0,0,1-2.1413-4.1433,42.842,42.842,0,0,1-1.74-4.4658A41.308,41.308,0,0,1,.6935,51.4132C.551,50.5924.3957,49.7711.3,48.9463.2059,48.135.1437,47.3161.0773,46.5c-.134-1.6441-.0434-3.2868-.0761-4.93a18.7337,18.7337,0,0,1,.1543-2.0534c.0526-.5825.1181-1.1624.19-1.7427.1442-1.1619.3614-2.31.5993-3.455a42.7784,42.7784,0,0,1,1.629-5.6559c.4626-1.2982,1.0142-2.5609,1.6017-3.81A42.8273,42.8273,0,0,1,7.7448,18.701c.7163-1.0343,1.4943-2.021,2.2926-2.9946a45.6281,45.6281,0,0,1,3.7318-3.9726c.5676-.5445,1.1813-1.0455,1.7818-1.5577A42.03,42.03,0,0,1,20.22,6.7614c.8141-.52,1.6477-1.0066,2.4958-1.4709.6309-.3454,1.2662-.6809,1.9148-.9894q1.8031-.8577,3.6742-1.5586a43.5076,43.5076,0,0,1,5.4073-1.62c1.05-.2433,2.1092-.4333,3.1757-.5961.85-.13,1.7035-.2366,2.5566-.3143C39.98.1632,40.52.1074,41.0618.092A31.961,31.961,0,0,1,44.2682.0265c.8446.0608,1.6918.0416,2.5365.14.4454.0516.901.0794,1.352.1148.5222.0409,1.0439.1057,1.5614.1875.8188.1294,1.6387.2592,2.45.43,1.1545.2427,2.3025.5148,3.4366.8461.8558.25,1.7019.5278,2.5425.8212,1.0621.3707,2.0962.8137,3.1278,1.2631.8068.3514,1.5874.7544,2.3717,1.15,1.006.5071,1.9674,1.0942,2.925,1.6866A38.461,38.461,0,0,1,69.95,9.018c.5873.4568,1.1623.9317,1.7339,1.41,1.0034.8393,1.918,1.7675,2.8461,2.6841.8447.8342,1.62,1.7284,2.3861,2.6352a42.2691,42.2691,0,0,1,3.047,4.119c.5931.9045,1.1347,1.84,1.66,2.787.3985.7183.7666,1.4507,1.1238,2.1886.5542,1.1447,1.037,2.32,1.4835,3.5116a41.4516,41.4516,0,0,1,1.6158,5.4047c.1993.88.3588,1.7681.5144,2.6574.1306.7462.2145,1.4978.3252,2.246a8.9921,8.9921,0,0,1,.0964,1.2221C86.7942,41.0885,86.7863,42.2936,86.7863,43.4987Zm-10.7477-.1049A31.8924,31.8924,0,0,0,65.9152,19.9705a31.5578,31.5578,0,0,0-24.0174-8.9927,31.42,31.42,0,0,0-21.3985,9.45,31.5813,31.5813,0,0,0-9.61,23.8431,31.5105,31.5105,0,0,0,8.8233,21.5021,32.3824,32.3824,0,0,0,47.666-.2263A32.0029,32.0029,0,0,0,76.0386,43.3938Z"/><path class="a" d="M43.5828,19.3068a11.0594,11.0594,0,0,1,2.0686.1123,24.7719,24.7719,0,0,1,4.58.8976,23.7863,23.7863,0,0,1,4.92,2.078,25.3776,25.3776,0,0,1,5.932,4.618,24.66,24.66,0,0,1,3.032,4.0168c.3463.5775.6811,1.1613.97,1.77.1329.2808.1274.2815-.157.415-.1861.0873-.37.18-.5545.27-1.463.7173-2.9156,1.4568-4.3927,2.1436-.879.4087-1.7349.8628-2.6154,1.266-.5471.2506-1.0913.506-1.6309.7723-.3025.1493-.3346.1379-.5143-.1747a16.65,16.65,0,0,0-1.4338-2.2109,14.0808,14.0808,0,0,0-1.6834-1.7855,13.0936,13.0936,0,0,0-3.0759-2.0217,13.4816,13.4816,0,0,0-3.8636-1.1355,14.4128,14.4128,0,0,1-1.5725-.146,1.2,1.2,0,0,0-.6543.0271,1.408,1.408,0,0,1-.4358.0476,9.8293,9.8293,0,0,0-2.6763.44,13.345,13.345,0,0,0-9.0162,8.4433,14.0176,14.0176,0,0,0-.6471,2.8076,13.2645,13.2645,0,0,0-.0545,2.634,12.9567,12.9567,0,0,0,1.0383,4.14,12.6529,12.6529,0,0,0,1.5084,2.614,12.8412,12.8412,0,0,0,2.4937,2.5759,14.2787,14.2787,0,0,0,2.0449,1.3523,13.2165,13.2165,0,0,0,7.025,1.5151,12.5662,12.5662,0,0,0,2.6237-.4414,12.95,12.95,0,0,0,4.879-2.5109,13.7592,13.7592,0,0,0,3.1952-3.7659c.1028-.1778.1858-.3669.2809-.5492.1816-.3481.1838-.35.5257-.1844,1.1993.582,2.3923,1.1775,3.5979,1.7461,1.0734.5063,2.1272,1.0533,3.203,1.5525.7845.3639,1.5544.7553,2.33,1.1362.3367.1653.3344.1739.1666.5226a22.4657,22.4657,0,0,1-2.7279,4.2933c-.44.55-.9226,1.0587-1.4,1.5755a22.6481,22.6481,0,0,1-4.629,3.8073,24.4693,24.4693,0,0,1-6.3679,2.8273,23.2813,23.2813,0,0,1-3.0424.6592,12.72,12.72,0,0,1-2.4468.2052,2.4721,2.4721,0,0,0-.9174.07.3982.3982,0,0,1-.2184.0035,7.4149,7.4149,0,0,0-1.5341-.0841A24.0837,24.0837,0,0,1,35.5127,66.4a23.886,23.886,0,0,1-5.1-2.46,27.9015,27.9015,0,0,1-2.5215-1.8309c-.7766-.6294-1.4526-1.3671-2.164-2.0666a20.2155,20.2155,0,0,1-2.0688-2.503,23.8148,23.8148,0,0,1-3.9842-9.1212c-.12-.6318-.2378-1.2643-.3335-1.9a6.9989,6.9989,0,0,1-.092-1.0028c-.0027-.7933-.1695-1.5781-.1084-2.371a35.5932,35.5932,0,0,1,.3971-3.8791,25.7884,25.7884,0,0,1,.79-3.1942,20.78,20.78,0,0,1,1.0114-2.5773,23.2169,23.2169,0,0,1,3.4007-5.4193,22.7556,22.7556,0,0,1,1.7179-1.881,28.4039,28.4039,0,0,1,2.8625-2.383,24.094,24.094,0,0,1,3.54-2.1128,22.7237,22.7237,0,0,1,5.8981-1.9415,26.2384,26.2384,0,0,1,2.905-.3685C42.2332,19.3486,42.802,19.3341,43.5828,19.3068Z"/></svg>