<svg xmlns="http://www.w3.org/2000/svg" width="379.1382" height="98.7811" viewBox="0 0 379.1382 98.7811"><defs><style>.a{fill:#2d3277;}.b{fill:#009ee3;}.c{fill:#fff;}</style></defs><path class="a" d="M138.8409,45.4043C138.8409,20.3906,107.7618,0,69.4229,0,31.086,0,.0079,20.3906.0079,45.4043.0079,46.05,0,47.8359,0,48.0625,0,74.5986,27.1641,96.0908,69.4141,96.0908c42.5117,0,69.4268-21.4863,69.4268-48.0234Z"/><path class="b" d="M136.1827,45.3818c0,23.582-29.8829,42.6992-66.7471,42.6992S2.6905,68.9638,2.6905,45.3818c0-23.584,29.8818-42.7012,66.7451-42.7012S136.1827,21.7978,136.1827,45.3818Z"/><path class="c" d="M47.2735,31.91c-.0352.0674-.7012.7559-.27,1.31,1.0538,1.3457,4.3067,2.1172,7.5967,1.38,1.959-.44,4.47-2.4375,6.9024-4.3672,2.6357-2.0947,5.2509-4.1914,7.88-5.0254a9.0024,9.0024,0,0,1,5.7451-.1494,17.6741,17.6741,0,0,1,5.2373,3.0557c4.5674,3.4336,22.9316,19.4629,26.1045,22.2343a158.394,158.394,0,0,1,29.3466-9.4453c-1.3408-8.2285-6.3457-15.7558-13.9365-21.92-10.5791,4.4434-23.5088,6.7617-36.1513.5869-.0645-.0263-6.9073-3.2646-13.6563-3.1055-10.0312.2325-14.3769,4.5743-18.9756,9.17Z"/><path class="c" d="M105.7237,52.0908c-.2149-.1914-21.5928-18.8975-26.4366-22.5381-2.8027-2.1015-4.3613-2.6377-5.998-2.8467a8.1815,8.1815,0,0,0-2.8525.2735c-2.253.6133-5.1983,2.583-7.8145,4.6562-2.708,2.1573-5.2617,4.1885-7.63,4.7188a12.3412,12.3412,0,0,1-8.41-1.2627,3.7233,3.7233,0,0,1-1.3955-1.53,2.5858,2.5858,0,0,1,.7148-2.793l5.8994-6.3808c.6856-.6846,1.377-1.3692,2.083-2.044a38.2659,38.2659,0,0,0-5.3759,1.211,23.44,23.44,0,0,1-6.2735,1.1718,59.6157,59.6157,0,0,1-6.4033-1.0029,95.6569,95.6569,0,0,1-17.0234-6.1514c-8.3868,6.2432-13.9952,14.05-15.6153,22.6485,1.2051.3183,3.1465.8965,3.9619,1.0771,18.98,4.22,24.8907,8.5674,25.9629,9.4746a6.2811,6.2811,0,0,1,9.8477.5791,7.174,7.174,0,0,1,4.5234-1.5908,8.4505,8.4505,0,0,1,2.7149.4766,6.2341,6.2341,0,0,1,3.8193,3.45,6.33,6.33,0,0,1,2.6416-.5606,7.9647,7.9647,0,0,1,3.1563.6963c3.499,1.502,4.0439,4.9385,3.7265,7.53a6.4469,6.4469,0,0,1,.7549-.041,7.5143,7.5143,0,0,1,6.6221,11.0791c1.1289.6347,4.0068,2.07,6.5332,1.75,2.0185-.2539,2.7851-.9444,3.06-1.332.1875-.2676.3868-.5791.2022-.8028l-5.3555-5.9492s-.8818-.834-.5908-1.1553c.3027-.33.8467.1436,1.2324.4658,2.7256,2.2764,6.0537,5.711,6.0537,5.711.0557.0371.2764.4726,1.5069.6933a5.5666,5.5666,0,0,0,4.2324-.9873,6.353,6.353,0,0,0,.9287-.9521.3118.3118,0,0,1-.06.0478,2.8463,2.8463,0,0,0-.1513-3.5253l-6.252-7.0206s-.8945-.8261-.5908-1.1591c.2725-.2881.8476.1474,1.2392.4726,1.98,1.6553,4.7764,4.4619,7.4571,7.0879.5234.3828,2.88,1.8408,5.999-.209a4.303,4.303,0,0,0,2.22-3.9179,4.4714,4.4714,0,0,0-1.32-2.6084l-8.541-8.586s-.9014-.77-.583-1.16c.2607-.3282.8467.1445,1.23.4658C92.0957,51.9971,99.46,58.749,99.46,58.749a5.181,5.181,0,0,0,5.7939-.1162,3.87,3.87,0,0,0,1.9043-3.0606A4.5207,4.5207,0,0,0,105.7237,52.0908Z"/><path class="c" d="M64.3008,62.9756c-1.3242-.0157-2.7724.77-2.9619.6562-.1045-.0693.0811-.6015.2051-.9082.1269-.3047,1.8711-5.5517-2.38-7.374-3.2529-1.3984-5.2412.1748-5.9248.8848-.18.1855-.26.1709-.28-.0664a4.69,4.69,0,0,0-3.2959-4.3575,6.43,6.43,0,0,0-7.247,2.583,4.6408,4.6408,0,1,0-1.38,3.9483c.0263.0244.0371.0683.0234.1572a6.127,6.127,0,0,0,3.8272,7.042,4.5652,4.5652,0,0,0,4.4921-.6943c.3692-.2608.43-.15.377.1963-.1582,1.0761.042,3.3818,3.2734,4.6923a4.153,4.153,0,0,0,4.8672-.9043c.4151-.3789.5283-.3173.55.2676a5.8585,5.8585,0,1,0,5.8545-6.123Z"/><path class="a" d="M106.5508,49.8515c-6.5849-5.747-21.8047-18.9785-25.9267-22.0722a18.1149,18.1149,0,0,0-5.3711-3.127,8.89,8.89,0,0,0-2.6387-.41,11.11,11.11,0,0,0-3.35.5634c-2.6641.8428-5.3174,2.9522-7.8848,4.9922l-.1318.1045c-2.3916,1.9-4.8623,3.8672-6.7324,4.2852a11.39,11.39,0,0,1-2.4932.2783c-2.0947-.0029-3.9766-.6074-4.6816-1.5068-.1163-.1485-.042-.39.23-.7364l.0362-.0459L53.4,25.9336c4.5371-4.5371,8.8233-8.8213,18.6885-9.0479.1621-.0049.3291-.0078.4922-.0078a34.9483,34.9483,0,0,1,12.9678,3.0713,40.164,40.164,0,0,0,17.6748,4.24A46.151,46.151,0,0,0,122.628,19.54c-.7539-.6347-1.5391-1.2519-2.3467-1.8574a42.7078,42.7078,0,0,1-17.041,3.87,37.6077,37.6077,0,0,1-16.54-3.98A37.2291,37.2291,0,0,0,72.584,14.2383c-.1845,0-.372.0029-.5566.0058-8.2862.1944-12.9541,3.1367-16.0928,5.7149a31.862,31.862,0,0,0-8.03,1.4648,21.7289,21.7289,0,0,1-5.6582,1.084c-.7256,0-2.0312-.0664-2.1484-.07C38.0723,22.376,27.8682,19.873,19.751,16.8c-.8291.5869-1.626,1.1924-2.4023,1.81,8.4795,3.4765,18.7988,6.166,22.0556,6.3759.9063.06,1.8721.1621,2.8379.1641a24.1234,24.1234,0,0,0,6.3858-1.1865c1.2285-.3457,2.5849-.7207,4.0117-.9942q-.5713.5612-1.1416,1.1348l-5.8867,6.3672a2.9583,2.9583,0,0,0-.8057,3.2529,4.13,4.13,0,0,0,1.5479,1.7178,12.2635,12.2635,0,0,0,6.247,1.5849,11.3549,11.3549,0,0,0,2.4922-.2607c2.4668-.5537,5.0547-2.6152,7.7969-4.7949,2.1846-1.7354,5.2881-3.94,7.664-4.5869a8.7359,8.7359,0,0,1,2.1348-.293,4.2955,4.2955,0,0,1,.5527.0322c1.57.1992,3.0879.7334,5.7979,2.7676C83.87,33.52,105.251,52.2236,105.46,52.4082a4.1119,4.1119,0,0,1,1.2832,3.1426,3.4234,3.4234,0,0,1-1.708,2.7295,5.2,5.2,0,0,1-2.8066.874,4.6142,4.6142,0,0,1-2.4766-.7178c-.0791-.0644-7.4043-6.7812-10.0986-9.0371a2.2617,2.2617,0,0,0-1.2686-.6758.6961.6961,0,0,0-.56.2637c-.4248.5224.0508,1.2461.61,1.7226l8.5566,8.6006a4.0541,4.0541,0,0,1,1.1817,2.3174,3.9058,3.9058,0,0,1-2.0313,3.5469,5.5161,5.5161,0,0,1-3.0332,1.0029,4.4139,4.4139,0,0,1-2.44-.74l-1.2276-1.21c-2.2431-2.207-4.5595-4.4892-6.2548-5.9043a2.2759,2.2759,0,0,0-1.2754-.6611.7254.7254,0,0,0-.5391.2285c-.1934.2149-.3281.6016.1533,1.2422a4.2538,4.2538,0,0,0,.4326.4814l6.2442,7.0137a2.3919,2.3919,0,0,1,.1406,2.9922l-.2207.28a6.4405,6.4405,0,0,1-.58.5595,4.9973,4.9973,0,0,1-3.0517.9678,4.8031,4.8031,0,0,1-.8438-.0722,2.1207,2.1207,0,0,1-1.23-.5186l-.0752-.0791c-.3418-.3525-3.4893-3.5654-6.0938-5.7393a2.1529,2.1529,0,0,0-1.2139-.65.7413.7413,0,0,0-.5634.252c-.5157.5645.2578,1.4082.5859,1.7178l5.3262,5.873a1.23,1.23,0,0,1-.2022.3584c-.19.2637-.8369.91-2.7685,1.1524a5.3264,5.3264,0,0,1-.7071.0429,12.1721,12.1721,0,0,1-5.2119-1.5478A7.9432,7.9432,0,0,0,64.3086,60.89c-.0937,0-.1933.003-.2871.0059.1436-2.001-.14-5.791-4.0293-7.459a8.3579,8.3579,0,0,0-3.3213-.7314,6.7542,6.7542,0,0,0-2.4345.44,6.6829,6.6829,0,0,0-3.89-3.3018,8.7169,8.7169,0,0,0-2.8515-.5029,7.51,7.51,0,0,0-4.4395,1.4229,6.694,6.694,0,0,0-9.9707-.5616c-1.6572-1.2656-8.2334-5.4433-25.833-9.4394C6.4,40.57,4.4434,40.0088,3.2452,39.6582a28.3806,28.3806,0,0,0-.45,2.8877s3.2461.7773,3.8847.9209C24.6592,47.46,30.6,51.6123,31.6036,52.3974a6.7459,6.7459,0,0,0,7.4531,9.2168,7.8535,7.8535,0,0,0,5.082,5.8692,6.698,6.698,0,0,0,2.4.4648,6.1552,6.1552,0,0,0,1.5342-.1924A7.8122,7.8122,0,0,0,54.9,72.2138a5.9449,5.9449,0,0,0,2.0576-.3662,7.93,7.93,0,0,0,13.0341,2.5166,14.9714,14.9714,0,0,0,6.7256,2.0069,8.5914,8.5914,0,0,0,1.0186-.0645c2.7168-.3437,3.9814-1.4062,4.5625-2.2324a3.2983,3.2983,0,0,0,.2793-.4561,7.7132,7.7132,0,0,0,2.1543.337A7.2579,7.2579,0,0,0,89.0791,72.4a5.9905,5.9905,0,0,0,2.5635-3.73c.0029-.0166.0059-.0352.0078-.0537a7.1927,7.1927,0,0,0,1.4541.1494A8.0839,8.0839,0,0,0,97.57,67.35a6.4425,6.4425,0,0,0,3.205-5.74,7.1907,7.1907,0,0,0,1.4717.1533,7.7175,7.7175,0,0,0,4.1846-1.2871,6.1117,6.1117,0,0,0,2.9062-4.7325,6.3829,6.3829,0,0,0-.9228-3.8222A172.8839,172.8839,0,0,1,136.15,43.2383a28.41,28.41,0,0,0-.3877-2.877A159.0343,159.0343,0,0,0,106.5508,49.8515Zm-42.25,24.4219a5.3983,5.3983,0,0,1-5.4277-5.1894c-.0078-.2491-.0332-.9112-.5938-.9112a1.0343,1.0343,0,0,0-.6611.3467,3.8216,3.8216,0,0,1-2.667,1.2061,4.673,4.673,0,0,1-1.7578-.3819c-3.0986-1.2549-3.1416-3.3838-3.0156-4.2392a.7766.7766,0,0,0-.1114-.65l-.19-.1709h-.1933a.9463.9463,0,0,0-.5391.2187,4.5262,4.5262,0,0,1-2.63.9356A4.08,4.08,0,0,1,45.045,65.15a5.692,5.692,0,0,1-3.5586-6.5977.558.558,0,0,0-.1778-.5381l-.2881-.2373-.27.2578a4.2386,4.2386,0,1,1,1.2559-3.5869l.1455,1.1377.625-.9629a5.8841,5.8841,0,0,1,6.7685-2.4092,4.2814,4.2814,0,0,1,3,3.9883c.045.5528.4375.5791.5147.5791a.6925.6925,0,0,0,.4892-.2558A4.2778,4.2778,0,0,1,56.669,55.209a5.9986,5.9986,0,0,1,2.3359.5263c3.9873,1.711,2.1787,6.7784,2.1572,6.8311-.3427.84-.3564,1.2109-.0341,1.4248l.1572.0752h.1162a2.8205,2.8205,0,0,0,.7725-.2031,6.8127,6.8127,0,0,1,2.1279-.4678h.0019a5.439,5.439,0,1,1-.0029,10.8779Z"/><path class="a" d="M375.38,16.4746q-3.7587-4.7109-11.4141-4.709-7.6464,0-11.4062,4.709a17.2817,17.2817,0,0,0-3.7617,11.126A17.2,17.2,0,0,0,352.56,38.7773q3.7559,4.6319,11.4062,4.6377,7.6583,0,11.4141-4.6377a17.1971,17.1971,0,0,0,3.7578-11.1767A17.2786,17.2786,0,0,0,375.38,16.4746Zm-6.209,18.0088a6.8713,6.8713,0,0,1-10.4707,0q-1.84-2.4185-1.8379-6.8828,0-4.4561,1.8379-6.8653a6.8967,6.8967,0,0,1,10.4707,0q1.8223,2.4068,1.8242,6.8653Q370.9956,32.0625,369.1714,34.4834Z"/><path class="a" d="M311.3453,13.85a19.02,19.02,0,0,0-8.7227-1.94q-7.5439,0-10.6465,3.9336a11.4352,11.4352,0,0,0-2.1992,6.4219h7.5156a5.6271,5.6271,0,0,1,1.1094-2.7324q1.1631-1.3653,3.9551-1.3652a8.0881,8.0881,0,0,1,3.7851.6982,2.6177,2.6177,0,0,1,1.2871,2.5244,2.3418,2.3418,0,0,1-1.68,2.2149,12.3021,12.3021,0,0,1-3.1133.6826l-2.6641.3281a18.9738,18.9738,0,0,0-6.8809,1.915q-4.2685,2.46-4.2675,7.9493a8.2021,8.2021,0,0,0,2.6523,6.5429,10.5267,10.5267,0,0,0,6.7207,2.3106c16.9961.7588,16.8047-8.9571,16.961-10.9776V21.1728Q315.1578,15.794,311.3453,13.85ZM307.398,30.8183q-.0791,3.9068-2.2324,5.3819a8.1289,8.1289,0,0,1-4.6973,1.4775,4.284,4.284,0,0,1-2.7363-.89,3.4582,3.4582,0,0,1-1.1211-2.8838A3.5576,3.5576,0,0,1,298.4468,30.6a11.6209,11.6209,0,0,1,3.582-1.0615l1.7754-.3291a12.99,12.99,0,0,0,2.086-.5391,7.8412,7.8412,0,0,0,1.5078-.7471Z"/><path class="a" d="M272.5894,18.5722a5.064,5.064,0,0,1,4.291,1.7989,6.6733,6.6733,0,0,1,1.1817,2.998h8.3828q-.6885-6.3442-4.4375-8.8554a17.0953,17.0953,0,0,0-9.6446-2.5059q-6.9258,0-10.8632,4.25-3.9405,4.2525-3.94,11.89,0,6.7647,3.5625,11.0186,3.5655,4.2467,11.1191,4.249,7.5645,0,11.4141-5.0947a12.5663,12.5663,0,0,0,2.7012-6.7012h-8.3555a7.0511,7.0511,0,0,1-1.4668,3.8155c-.8066.9765-2.1641,1.47-4.0859,1.47a5.459,5.459,0,0,1-5.5274-3.7071,14.1822,14.1822,0,0,1-.8066-5.24,15.4913,15.4913,0,0,1,.8066-5.49A5.6314,5.6314,0,0,1,272.5894,18.5722Z"/><path class="a" d="M255.3121,12.0078c-17.2208,0-16.2032,15.249-16.2032,15.249V42.7461h7.8164V28.2178a11.9516,11.9516,0,0,1,.8965-5.2891q1.6085-3.0469,6.293-3.0508c.2344,0,.5449.0127.9258.03s.8125.0527,1.31.11V12.0664c-.3476-.0234-.5723-.0332-.67-.043C255.5816,12.0156,255.4585,12.0078,255.3121,12.0078Z"/><path class="a" d="M226.605,34.6533a5.7007,5.7007,0,0,1-1.07,1.1816,6.671,6.671,0,0,1-4.3691,1.1856,7.41,7.41,0,0,1-4.16-.999c-1.9492-1.1983-3.0469-3.2266-3.1641-6.2041h21.625a39.2932,39.2932,0,0,0-.26-5.8916,14.6268,14.6268,0,0,0-2.3633-6.1387,12.129,12.129,0,0,0-5.1328-4.3945,16.9613,16.9613,0,0,0-6.9766-1.3868A14.318,14.318,0,0,0,210.1167,16.12q-4.09,4.122-4.0957,11.83,0,8.2353,4.5352,11.8867a16.1853,16.1853,0,0,0,10.457,3.6543q7.1778,0,11.168-4.332a10.518,10.518,0,0,0,2.7109-4.5059ZM216.0992,20.1015a6.17,6.17,0,0,1,4.6347-1.6953,6.7992,6.7992,0,0,1,4.6055,1.6006,6.4745,6.4745,0,0,1,2.0644,4.6885h-13.371A8.0574,8.0574,0,0,1,216.0992,20.1015Z"/><path class="a" d="M202.8843,42.7431h-7.1387V24.7676c0-1.6426-.5429-5.5489-5.2519-5.5489a5.26,5.26,0,0,0-5.41,5.5489V42.7431h-7.1464V24.7676c0-1.6426-.4874-5.5489-5.1934-5.5489a5.2328,5.2328,0,0,0-5.4141,5.5489V42.7431h-7.1435V24.9385c0-7.4219,4.9238-13.0342,12.5576-13.0342a10.9942,10.9942,0,0,1,8.876,4.1406,11.3769,11.3769,0,0,1,8.874-4.1406c7.793,0,12.3906,5.3847,12.3906,13.0342Z"/><path class="a" d="M346.4742,2.6211s-7.8731-.8408-7.8731,5.4824l-.0058,8.3721a9.3868,9.3868,0,0,0-3.4024-3.28,9.5662,9.5662,0,0,0-4.7949-1.1875,11.3875,11.3875,0,0,0-9.3516,4.3584c-2.3359,2.9072-3.498,7.0957-3.498,12.16A16.173,16.173,0,0,0,321.1011,39.33c2.3692,2.8017,7.0156,4.0322,11.1426,4.0322,14.3906,0,14.2246-12.3408,14.2246-12.3408Zm-9.375,31.9267A5.7255,5.7255,0,0,1,332.0894,37a5.4793,5.4793,0,0,1-4.916-2.4658,12.5854,12.5854,0,0,1-1.6172-6.78,11.9218,11.9218,0,0,1,1.59-6.3877,5.45,5.45,0,0,1,4.9961-2.5752,5.9327,5.9327,0,0,1,3.9239,1.416c1.8339,1.5625,2.75,4.3652,2.75,7.9942A10.8283,10.8283,0,0,1,337.0992,34.5478Z"/><path class="b" d="M217.2554,92.3467a3.6734,3.6734,0,0,1-1.1543,2.72,3.77,3.77,0,0,1-2.7558,1.1348h-3.9024V69.0439c0-5.2812,1.7793-8.5888,4.709-10.8242,1.9355-1.4775,4.82-2.8877,10.2246-2.8877,3.6484,0,7.9219,1.416,10.2305,4.23,2.59,3.165,3.67,6.6914,3.67,11.2978,0,4.7647-1.1484,8.6084-3.4453,11.5635a10.8209,10.8209,0,0,1-8.8477,4.3067,11.8751,11.8751,0,0,1-5.0527-1.0167,8.5873,8.5873,0,0,1-3.6758-3.5166ZM230.3531,71.2q0-4.421-1.7266-6.8018a5.7427,5.7427,0,0,0-4.9394-2.3818,5.648,5.648,0,0,0-4.83,2.3818c-1.0684,1.4375-1.6016,3.711-1.6016,6.8018,0,2.8808.5723,5.0254,1.7227,6.4629a5.7191,5.7191,0,0,0,4.9394,2.3818,5.5,5.5,0,0,0,4.709-2.3818A10.7768,10.7768,0,0,0,230.3531,71.2"/><path class="b" d="M290.06,84.2265V82.3076a8.6409,8.6409,0,0,1-5.4746,3.9639,11.1828,11.1828,0,0,1-6.8223-.5713,12.6762,12.6762,0,0,1-5.8183-5.0352q-2.42-3.6929-2.4219-9.6924,0-7.0136,3.2129-11.3808c2.1465-2.9053,5.59-4.2315,10.3281-4.3613,4.67-.1231,7.3848.9335,10.043,2.9462,2.9062,2.2061,4.625,5.5909,4.625,10.8721V85.0263c.0117,5.084-3.5332,14.5059-14.668,13.7071-6.8984-.5-10.7266-3.33-12.8633-9.7422h8.2364a6.3067,6.3067,0,0,0,6.4843,2.8838,6.1682,6.1682,0,0,0,3.3926-2.2061,9.2977,9.2977,0,0,0,1.7461-5.4424M277.1949,71.2041q0,7.8135,4.5156,8.667,4.5059.8349,6.6562-2.1006a8.4351,8.4351,0,0,0,1.4649-3.9033,16.5543,16.5543,0,0,0,.0586-5.2657,10.4816,10.4816,0,0,0-1.8633-4.6484A4.9511,4.9511,0,0,0,283.74,61.914c-2.5586,0-4.2852.9483-5.19,2.8282a14.74,14.74,0,0,0-1.3554,6.4619"/><path class="b" d="M262.8394,57.3857a19.0791,19.0791,0,0,0-8.7207-1.9365q-7.5528,0-10.65,3.9316a11.4419,11.4419,0,0,0-2.1973,6.4229h7.52a5.58,5.58,0,0,1,1.1074-2.7324q1.1631-1.3653,3.9531-1.3662a8.0993,8.0993,0,0,1,3.7852.6972,2.6218,2.6218,0,0,1,1.2871,2.5274,2.3431,2.3431,0,0,1-1.68,2.2138,12.3433,12.3433,0,0,1-3.1133.6827l-2.6641.3251a19.0129,19.0129,0,0,0-6.8769,1.9161q-4.2744,2.4579-4.27,7.9472a8.1936,8.1936,0,0,0,2.6523,6.543,10.5176,10.5176,0,0,0,6.7188,2.3115c16.9921.76,16.8027-8.958,16.957-10.9775V64.708q0-5.38-3.8086-7.3223m-3.9512,16.9688c-.0488,2.6074-.7969,4.3974-2.2285,5.3828a8.1314,8.1314,0,0,1-4.6973,1.4746,4.2792,4.2792,0,0,1-2.7343-.8877,3.4551,3.4551,0,0,1-1.125-2.8848,3.5593,3.5593,0,0,1,1.84-3.3047,11.5926,11.5926,0,0,1,3.58-1.0595l1.7734-.33a12.5988,12.5988,0,0,0,2.084-.5381,7.7391,7.7391,0,0,0,1.5078-.748Z"/><path class="b" d="M327.2945,59.85q-3.7647-4.7139-11.418-4.709-7.6406,0-11.4062,4.709a17.2719,17.2719,0,0,0-3.76,11.126,17.1917,17.1917,0,0,0,3.76,11.1738q3.7587,4.6288,11.4062,4.6357,7.6552,0,11.418-4.6357a17.208,17.208,0,0,0,3.7519-11.1738,17.2881,17.2881,0,0,0-3.7519-11.126m-6.2129,18.0039a6.8653,6.8653,0,0,1-10.4668,0q-1.8458-2.4156-1.84-6.8779,0-4.4575,1.84-6.8643a6.8943,6.8943,0,0,1,10.4668,0q1.8281,2.4038,1.8242,6.8643,0,4.4589-1.8242,6.8779"/></svg>